<?xml version="1.0" encoding="UTF-8"?>
<svg width="32" height="32" viewBox="0 0 32 32" fill="none" xmlns="http://www.w3.org/2000/svg">
  <path d="M8 8C8 8 12 8 16 8C20 8 24 8 24 8C24 8 24 12 24 16C24 20 24 24 24 24C24 24 20 24 16 24C12 24 8 24 8 24C8 24 8 20 8 16C8 12 8 8 8 8Z" fill="#4F46E5"/>
  <path d="M8 8C8 8 12 8 16 8C20 8 24 8 24 8C24 8 24 12 24 16C24 20 24 24 24 24C24 24 20 24 16 24C12 24 8 24 8 24C8 24 8 20 8 16C8 12 8 8 8 8Z" stroke="#4F46E5" stroke-width="2"/>
  <path d="M8 16C8 16 12 16 16 16C20 16 24 16 24 16" stroke="#4F46E5" stroke-width="2"/>
</svg> 